# xmcd
#
# Track frame offsets:
#	150
#	25393
#	48101
#	82176
#	102092
#	127987
#	148859
#	179031
#	192513
#	232440
#	257696
#	285885
#	317503
#
# Disc length: 4582 seconds
#
# Revision: 2
# Processed by: cddbd v1.4PL0 Copyright (c) Steve Scherf et al.
# Submitted via: MusicWizard 6.0.2
#
DISCID=bd11e40d
DTITLE=Gary Moore - Blues Alive
DYEAR=1900
DGENRE=Country
TTITLE0=Cold Day In Hell
TTITLE1=Walking By Myself
TTITLE2=Story Of The Blues
TTITLE3=Oh Pretty Woman
TTITLE4=Separate Ways
TTITLE5=Too Tired
TTITLE6=Still Got The Blues
TTITLE7=Since I Met You Baby
TTITLE8=The Sky Is Crying
TTITLE9=Further On Up The Road
TTITLE10=King Of The Blues
TTITLE11=Parisienne Walkways
TTITLE12=Jumpin' At Shadows
EXTD=
EXTT0=
EXTT1=
EXTT2=
EXTT3=
EXTT4=
EXTT5=
EXTT6=
EXTT7=
EXTT8=
EXTT9=
EXTT10=
EXTT11=
EXTT12=
PLAYORDER=
